# xmcd CD database file
#
# Track frame offsets:
#	150
#	21269
#	42828
#	61049
#	78610
#	97787
#	115948
#	147657
#	162457
#	174470
#	193523
#
# Disc length: 2868 seconds
#
# Revision: 0
# Processed by: cddbd v1.5.2PL0 Copyright (c) Steve Scherf et al.
# Submitted via: CDex 1.51
#
DISCID=8e0b320b
DTITLE=Bob Conti - Jazz Relaxante
DYEAR=2001
DGENRE=Jazz
TTITLE0=Night and day
TTITLE1=My foolish heart
TTITLE2=My romance
TTITLE3=Meditation
TTITLE4=All the things you are
TTITLE5=What now my love
TTITLE6=Baia
TTITLE7=Felicidade
TTITLE8=Ain't misbehavin'
TTITLE9=Besame mucho
TTITLE10=Wave
EXTD=YEAR: 2001
EXTT0=
EXTT1=
EXTT2=
EXTT3=
EXTT4=
EXTT5=
EXTT6=
EXTT7=
EXTT8=
EXTT9=
EXTT10=
PLAYORDER=
